<?xml version="1.0" encoding="utf-8"?>
<!-- Generator: Adobe Illustrator 23.0.5, SVG Export Plug-In . SVG Version: 6.00 Build 0)  -->
<svg version="1.1" id="Layer_1" xmlns="http://www.w3.org/2000/svg" xmlns:xlink="http://www.w3.org/1999/xlink" x="0px" y="0px"
	 viewBox="0 0 512 512" style="enable-background:new 0 0 512 512;" xml:space="preserve">
<style type="text/css">
	.st0{fill:url(#SVGID_1_);}
	.st1{fill:url(#SVGID_2_);}
	.st2{fill:#1E84BA;}
	.st3{fill:#DD006F;}
</style>
<linearGradient id="SVGID_1_" gradientUnits="userSpaceOnUse" x1="64.028" y1="302.9195" x2="345.648" y2="302.9195">
	<stop  offset="0" style="stop-color:#C7D3FF"/>
	<stop  offset="0.593" style="stop-color:#E7D8F5"/>
	<stop  offset="0.997" style="stop-color:#FFDBED"/>
</linearGradient>
<path class="st0" d="M137.2,240l145.7-53.7l62.8,62.8l-82.8-82.8L117.2,220L64,439.5l32.8-32.8L137.2,240z"/>
<linearGradient id="SVGID_2_" gradientUnits="userSpaceOnUse" x1="232.7846" y1="99.4986" x2="312.4317" y2="99.4986">
	<stop  offset="0" style="stop-color:#C7D3FF"/>
	<stop  offset="0.593" style="stop-color:#E7D8F5"/>
	<stop  offset="0.997" style="stop-color:#FFDBED"/>
</linearGradient>
<path class="st1" d="M232.8,119.3l59.7-59.7l20,20l-59.7,59.7L232.8,119.3z"/>
<path class="st2" d="M297.9,405.7c1.9-0.5,3.5-1.9,4.2-3.8l56.1-152.3c1.2-3.1-0.4-6.6-3.4-7.8s-6.6,0.4-7.8,3.4
	c0,0.1,0,0.1-0.1,0.2l-55,149.3L72.5,448l108.4-108.4c20,15.4,48.7,11.6,64.1-8.5c15.4-20,11.6-48.7-8.5-64.1
	c-20-15.4-48.7-11.6-64.1,8.5c-12.6,16.4-12.6,39.2,0,55.6L64,439.5L117.2,220l149.3-55c3.1-1.1,4.7-4.6,3.6-7.7
	c-1.1-3.1-4.6-4.7-7.7-3.6c0,0-0.1,0-0.1,0L110,209.9c-1.9,0.7-3.3,2.3-3.8,4.2L47.7,455.8l-0.8,0.8c-2.4,2.3-2.4,6.1-0.1,8.5
	c2.3,2.4,6.1,2.4,8.5,0.1c0,0,0,0,0.1-0.1l0.8-0.8L297.9,405.7z M184.9,279.5c13.2-13.2,34.5-13.2,47.6,0
	c13.2,13.2,13.2,34.5,0,47.6c-13.2,13.2-34.5,13.2-47.6,0C171.7,314,171.7,292.6,184.9,279.5L184.9,279.5z"/>
<path class="st3" d="M388.4,291.9c2.3,2.3,6.1,2.3,8.5,0l68.1-68.1c2.3-2.3,2.3-6.1,0-8.5L296.7,46.9c-2.3-2.3-6.1-2.3-8.5,0
	l-68.1,68.1c-2.3,2.3-2.3,6.1,0,8.5c0,0,0,0,0,0L388.4,291.9z M292.5,59.7l159.9,159.9l-59.7,59.7L232.8,119.3L292.5,59.7z"/>
</svg>
