<?xml version="1.0" encoding="utf-8"?>
<!-- Generator: Adobe Illustrator 23.0.5, SVG Export Plug-In . SVG Version: 6.00 Build 0)  -->
<svg version="1.1" id="Layer_1" xmlns="http://www.w3.org/2000/svg" xmlns:xlink="http://www.w3.org/1999/xlink" x="0px" y="0px"
	 viewBox="0 0 512 512" style="enable-background:new 0 0 512 512;" xml:space="preserve">
<style type="text/css">
	.st0{fill:#DD006F;}
	.st1{fill:url(#SVGID_1_);}
	.st2{fill:url(#SVGID_2_);}
	.st3{fill:#1E84BA;}
</style>
<g>
	<g>
		<path class="st0" d="M451.3,53.3c-21.6,0-39.6,15.3-43.1,35.5h-108v-30c0-4-3.3-7.3-7.3-7.3h-74.7c-4,0-7.3,3.3-7.3,7.3v30H101.9
			c-3.4-20.7-21-36.5-42.2-36.5C36.2,52.3,17,71.9,17,96s19.2,43.8,42.8,43.8c21.2,0,38.8-15.8,42.2-36.5h94.2
			c-42.8,22.2-69.5,66.4-69.4,114.6c0,4,3.3,7.3,7.3,7.3c4,0,7.3-3.3,7.3-7.3c-0.1-45.9,27.3-87.4,69.5-105.4v20.8
			c0,4,3.3,7.3,7.3,7.3h74.7c4,0,7.3-3.3,7.3-7.3v-21.2c18.9,8,35.4,20.8,47.7,37.2c14.8,19.8,22.8,43.9,22.8,68.6
			c0,4,3.3,7.3,7.3,7.3s7.3-3.3,7.3-7.3c0.1-27.9-8.9-55-25.7-77.4c-11.7-15.5-26.7-28.3-43.9-37.3h92.5
			c3.6,20.1,21.5,35.5,43.1,35.5c24.1,0,43.8-19.2,43.8-42.8S475.4,53.3,451.3,53.3L451.3,53.3z M59.7,125.2
			c-15.5,0-28.1-13.1-28.1-29.1s12.6-29.1,28.1-29.1S87.9,80,87.9,96S75.3,125.2,59.7,125.2z M225.5,126.1v-21.5
			c0.6-1.6,0.7-3.3,0.1-4.9c0-0.1-0.1-0.3-0.1-0.4V66h60v32.7c-0.1,0.2-0.2,0.4-0.2,0.6c-0.5,1.6-0.4,3.4,0.2,5v21.7L225.5,126.1z
			 M451.3,124.2c-16.1,0-29.1-12.6-29.1-28.1s13.1-28.1,29.1-28.1s29.1,12.6,29.1,28.1S467.3,124.2,451.3,124.2z"/>
		<path class="st0" d="M153.6,269.5c-1.8-3.6-6.2-5.1-9.8-3.2c-3.6,1.8-5.1,6.2-3.2,9.8c3.8,7.6,8.3,14.7,13.5,21.4
			c2.5,3.2,7.1,3.7,10.3,1.1c3.1-2.5,3.7-7,1.3-10.2C161,282.6,156.9,276.2,153.6,269.5z"/>
		<path class="st0" d="M145.5,248.6c-0.7-2.6-1.4-5.3-1.9-8c-0.7-4-4.6-6.6-8.5-5.9c-4,0.7-6.6,4.6-5.9,8.5c0,0.1,0,0.1,0,0.2
			c0.6,3,1.3,6.1,2.2,9.1c1,3.9,5.1,6.2,9,5.2c3.9-1,6.2-5.1,5.2-9C145.5,248.7,145.5,248.6,145.5,248.6L145.5,248.6z"/>
		<path class="st0" d="M199.4,317.7c-6.5-3.7-12.7-8.1-18.3-13c-3-2.7-7.7-2.4-10.3,0.7c-2.7,3-2.4,7.7,0.7,10.3c0,0,0,0,0.1,0.1
			c6.4,5.5,13.3,10.4,20.7,14.6c3.5,2,8,0.7,10-2.8C204,324.1,202.8,319.7,199.4,317.7L199.4,317.7z"/>
		<path class="st0" d="M354.8,289.8c-3.1-2.6-7.7-2.1-10.3,1c-2,2.4-4.1,4.7-6.2,7c-2.7,3-2.5,7.6,0.4,10.3
			c2.9,2.6,7.3,2.6,10.1-0.2c2.4-2.5,4.8-5.2,7-7.9C358.4,297,358,292.4,354.8,289.8L354.8,289.8z"/>
		<path class="st0" d="M374.8,246.6c-3.9-1.2-8,1-9.1,4.9c-2.2,7.2-5.1,14.1-8.6,20.7c-1.9,3.6-0.6,8,2.9,9.9c3.6,1.9,8,0.6,9.9-2.9
			c0,0,0,0,0-0.1c4-7.5,7.3-15.3,9.7-23.4C380.9,251.9,378.7,247.8,374.8,246.6L374.8,246.6z"/>
	</g>
	<linearGradient id="SVGID_1_" gradientUnits="userSpaceOnUse" x1="214.6397" y1="452.3863" x2="236.1627" y2="452.3863">
		<stop  offset="0" style="stop-color:#C7D3FF"/>
		<stop  offset="0.593" style="stop-color:#E7D8F5"/>
		<stop  offset="0.997" style="stop-color:#FFDBED"/>
	</linearGradient>
	<path class="st1" d="M214.6,415.6h21.5v73.5h-21.5V415.6z"/>
	<linearGradient id="SVGID_2_" gradientUnits="userSpaceOnUse" x1="178.4086" y1="278.5674" x2="247.7169" y2="278.5674">
		<stop  offset="0" style="stop-color:#C7D3FF"/>
		<stop  offset="0.593" style="stop-color:#E7D8F5"/>
		<stop  offset="0.997" style="stop-color:#FFDBED"/>
	</linearGradient>
	<path class="st2" d="M202.8,291.7l44.9-74.7l-0.3-40.1l-69.1,114.8l41.5,88.5l24.3-0.2L202.8,291.7z"/>
	<path class="st3" d="M347.1,286.4L260.8,147c-1.3-2.2-3.7-3.5-6.2-3.5h0c-2.5,0-4.9,1.4-6.2,3.5l-84.5,140.5
		c-1.3,2.1-1.4,4.7-0.4,6.9l44.5,94.8l0.1,11.9h-0.8c-4,0-7.3,3.3-7.3,7.4c0,0,0,0,0,0l0.4,58.7v0l0.2,29.4c0,4,3.3,7.3,7.3,7.3h0
		l97.9-0.6c4,0,7.3-3.3,7.3-7.4c0,0,0,0,0,0l-0.2-29.4l-0.2-29.4l-0.2-29.4c0-4-3.3-7.3-7.3-7.3h0h-0.8l-0.1-11.9l43.3-95.3
		C348.5,291,348.4,288.5,347.1,286.4L347.1,286.4z M255.4,276.2h0.1c10.3,0,18.7,8.3,18.7,18.6c0,10.3-8.3,18.7-18.6,18.7h-0.1
		c-10.3,0-18.7-8.3-18.7-18.6C236.8,284.6,245.1,276.2,255.4,276.2L255.4,276.2z M214.6,415.6l83.3-0.5l0.1,14.7l-83.3,0.5
		L214.6,415.6z M222.6,394.8l67-0.4l0,6.1l-67,0.4L222.6,394.8z M214.8,445l83.3-0.5l0.1,14.7l-83.3,0.5L214.8,445z M215.1,489.1
		l-0.1-14.7l83.3-0.5l0.1,14.7L215.1,489.1z M292.2,379.7l-72.3,0.5l-41.5-88.5l69.1-114.8l0.5,85.5c-17.9,4.2-29.1,22-24.9,40
		c3.5,15.1,16.9,25.8,32.4,25.8h0.2c18.4-0.1,33.2-15.1,33.1-33.5c-0.1-15.6-11-29-26.2-32.3l-0.5-85.5l70.5,113.9L292.2,379.7z"/>
</g>
</svg>
