<?xml version="1.0" encoding="utf-8"?>
<!-- Generator: Adobe Illustrator 23.0.5, SVG Export Plug-In . SVG Version: 6.00 Build 0)  -->
<svg version="1.1" id="Layer_1" xmlns="http://www.w3.org/2000/svg" xmlns:xlink="http://www.w3.org/1999/xlink" x="0px" y="0px"
	 viewBox="0 0 512 512" style="enable-background:new 0 0 512 512;" xml:space="preserve">
<style type="text/css">
	.st0{fill:url(#SVGID_1_);}
	.st1{fill:url(#SVGID_2_);}
	.st2{fill:#1E84BA;}
	.st3{fill:#DD006F;}
</style>
<title>video streaming</title>
<linearGradient id="SVGID_1_" gradientUnits="userSpaceOnUse" x1="45.947" y1="227.3458" x2="113.4" y2="227.3458">
	<stop  offset="0" style="stop-color:#C7D3FF"/>
	<stop  offset="0.593" style="stop-color:#E7D8F5"/>
	<stop  offset="0.997" style="stop-color:#FFDBED"/>
</linearGradient>
<path class="st0" d="M113.4,111.8H80.6c-19-0.1-34.5,15.3-34.6,34.3c0,0.1,0,0.3,0,0.4v196.5h32.8V146.5
	c-0.1-19,15.2-34.6,34.2-34.7C113.1,111.8,113.3,111.8,113.4,111.8z"/>
<linearGradient id="SVGID_2_" gradientUnits="userSpaceOnUse" x1="45.948" y1="376.91" x2="113.4" y2="376.91">
	<stop  offset="0" style="stop-color:#C7D3FF"/>
	<stop  offset="0.593" style="stop-color:#E7D8F5"/>
	<stop  offset="0.997" style="stop-color:#FFDBED"/>
</linearGradient>
<path class="st1" d="M78.8,365.3v-12.2H45.9v12.2c0,19.3,15.3,35.5,34.6,35.5h32.8C94.1,400.7,78.8,384.6,78.8,365.3z"/>
<path class="st2" d="M438.4,102.8H391c-3.3,0-6,2.7-6,6s2.7,6,6,6h47.4c12.8,0,23.2,10.4,23.2,23.3v205H50.3V138
	c0-12.8,10.4-23.2,23.2-23.3H121c3.3,0,6-2.7,6-6s-2.7-6-6-6l0,0H73.6c-19.5,0-35.2,15.8-35.2,35.3v237.7
	c0,19.5,15.8,35.2,35.2,35.2h120.5v71.8h-27.9c-3.3,0-6,2.7-6,6s2.7,6,6,6h185c3.3,0,6-2.7,6-6s-2.7-6-6-6H318v-71.8h120.5
	c19.5,0,35.2-15.8,35.2-35.2V138C473.7,118.5,457.9,102.8,438.4,102.8z M305.9,482.8H206v-71.8h99.9V482.8z M438.4,398.9H73.6
	c-12.8,0-23.2-10.4-23.2-23.2V355h411.4v20.7C461.7,388.5,451.3,398.9,438.4,398.9L438.4,398.9z"/>
<path class="st3" d="M252.9,276.8c-3.3,0-6,2.7-6,6v34.3c0,3.3,2.7,6,6,6c3.3,0,6-2.7,6-6v-34.3
	C258.9,279.5,256.2,276.8,252.9,276.8z"/>
<path class="st3" d="M258.9,257.7c0-3.3-2.7-6-6-6c-3.3,0-6,2.7-6,6v3.9c0,3.3,2.7,6,6,6c3.3,0,6-2.7,6-6V257.7z"/>
<path class="st3" d="M204.5,285.7c-3.3,0-6,2.7-6,6v15.4c0,3.3,2.7,6,6,6s6-2.7,6-6v-15.4C210.5,288.4,207.8,285.7,204.5,285.7z"/>
<path class="st3" d="M210.5,247.7c0-3.3-2.7-6-6-6s-6,2.7-6,6v22.7c0,3.3,2.7,6,6,6s6-2.7,6-6V247.7z"/>
<path class="st3" d="M301.4,276.4c-3.3,0-6,2.7-6,6v34.7c0,3.3,2.7,6,6,6s6-2.7,6-6v-34.7C307.4,279.1,304.7,276.4,301.4,276.4z"/>
<path class="st3" d="M307.4,247.7c0-3.3-2.7-6-6-6s-6,2.7-6,6v13.7c0,3.3,2.7,6,6,6s6-2.7,6-6V247.7z"/>
<path class="st3" d="M349.9,250.3c-3.3,0-6,2.7-6,6v25.2c0,3.3,2.7,6,6,6s6-2.7,6-6v-25.2C355.9,253,353.2,250.3,349.9,250.3z"/>
<path class="st3" d="M355.9,227.7c0-3.3-2.7-6-6-6s-6,2.7-6,6v9.6c0,3.3,2.7,6,6,6s6-2.7,6-6V227.7z"/>
<path class="st3" d="M156,258.1c-3.3,0-6,2.7-6,6v23c0,3.3,2.7,6,6,6s6-2.7,6-6v-23C162,260.8,159.3,258.1,156,258.1z"/>
<path class="st3" d="M162,227.7c0-3.3-2.7-6-6-6s-6,2.7-6,6v14.8c0,3.3,2.7,6,6,6s6-2.7,6-6V227.7z"/>
<path class="st2" d="M371,17.3H141c-14.4,0-26,11.6-26,26v149c0,14.4,11.6,26,26,26h230c14.4,0,26-11.6,26-26v-149
	C397,28.9,385.4,17.3,371,17.3z M141,29.3h230c7.7,0,14,6.3,14,14v123H223.1c-3.3-11.8-15.6-18.7-27.4-15.4
	c-7.4,2.1-13.3,7.9-15.4,15.4H127v-123C127,35.5,133.3,29.3,141,29.3z M211.9,172.3c0,5.6-4.6,10.2-10.2,10.2s-10.2-4.6-10.2-10.2
	c0-5.6,4.6-10.2,10.2-10.2l0,0C207.4,162.1,211.9,166.7,211.9,172.3L211.9,172.3z M371,206.3H141c-7.7,0-14-6.3-14-14v-14h53.4
	c3.3,11.8,15.6,18.7,27.4,15.4c7.4-2.1,13.3-7.9,15.4-15.4H385v14C385,200,378.7,206.2,371,206.3z"/>
<path class="st3" d="M347.1,118.6c0-3.9-3.1-7-7-7H153.8c-3.9,0-7,3.1-7,7c0,3.9,3.1,7,7,7h186.3
	C343.9,125.6,347.1,122.5,347.1,118.6z"/>
<path class="st3" d="M342.9,141.2h-47.7c-3.9,0-7,3.1-7,7c0,3.9,3.1,7,7,7h47.7c3.9,0,7-3.1,7-7S346.7,141.2,342.9,141.2z"/>
<path class="st3" d="M340.1,76h-24.9c-3.9,0-7,3.1-7,7s3.1,7,7,7h24.9c3.9,0,7-3.1,7-7S343.9,76,340.1,76L340.1,76z"/>
<path class="st3" d="M181.2,40.4h-24.9c-3.9,0-7,3.1-7,7s3.1,7,7,7h24.9c3.9,0,7-3.1,7-7S185,40.4,181.2,40.4L181.2,40.4z"/>
<path class="st3" d="M156.3,76c-3.9,0-7,3.1-7,7s3.1,7,7,7h116c3.9,0,7-3.1,7-7s-3.1-7-7-7H156.3z"/>
<path class="st3" d="M217.6,54.4h79.2c3.9,0,7-3.1,7-7s-3.1-7-7-7h-79.2c-3.9,0-7,3.1-7,7S213.7,54.4,217.6,54.4z"/>
</svg>
