<?xml version="1.0" encoding="utf-8"?>
<!-- Generator: Adobe Illustrator 23.0.5, SVG Export Plug-In . SVG Version: 6.00 Build 0)  -->
<svg version="1.1" id="Capa_1" xmlns="http://www.w3.org/2000/svg" xmlns:xlink="http://www.w3.org/1999/xlink" x="0px" y="0px"
	 viewBox="0 0 512 512" style="enable-background:new 0 0 512 512;" xml:space="preserve">
<style type="text/css">
	.st0{fill:url(#SVGID_1_);}
	.st1{opacity:0.1;fill:#0000CC;enable-background:new    ;}
	.st2{fill:#D7E1FF;}
	.st3{fill:#FFEEEE;}
	.st4{fill:#EBEBFF;}
	.st5{fill:#FFAB66;}
	.st6{fill:#6C6CFF;}
	.st7{fill:#FF8B00;}
	.st8{fill:#FF9494;}
	.st9{fill:#8399FE;}
	.st10{fill:#1E84BA;}
	.st11{fill:#FFFFFF;}
	.st12{fill:#FF9D33;}
	.st13{fill:#FF6C6C;}
</style>
<g>
	
		<linearGradient id="SVGID_1_" gradientUnits="userSpaceOnUse" x1="600.494" y1="445.4021" x2="-111.506" y2="-42.598" gradientTransform="matrix(1 0 0 -1 0 512)">
		<stop  offset="0" style="stop-color:#C7D3FF"/>
		<stop  offset="0.593" style="stop-color:#E7D8F5"/>
		<stop  offset="0.997" style="stop-color:#FFDBED"/>
	</linearGradient>
	<path class="st0" d="M465.3,166.6c-14.9-17.3-24.6-38.4-29.2-60.7c-3.9-19-12.1-35.4-25-48.3C352.3-1.1,218.8,37.1,112.9,143
		S-31.2,382.4,27.6,441.1c27.9,27.9,72.8,34,123.5,21.2c29.5-7.4,60.5-4.3,88.3,8c23.2,10.3,48.8,16.2,75.7,16.6
		c105.7,1.5,193.7-82.6,196.8-188.2C513.4,248.2,495.6,201.9,465.3,166.6z"/>
	<g>
		<g>
			<g>
				<g>
					<g>
						<g>
							<path class="st1" d="M132.1,468.2c0,11.5,9.3,20.8,20.8,20.8h206.1c11.5,0,20.8-9.3,20.8-20.8V75.8
								c0-11.5-9.3-20.8-20.8-20.8H152.9c-11.5,0-20.8,9.3-20.8,20.8V468.2z"/>
							<path class="st2" d="M379.9,48.8v392.3c0,11.5-9.3,20.8-20.8,20.8H152.9c-11.5,0-20.8-9.3-20.8-20.8V48.8
								c0-11.5,9.3-20.8,20.8-20.8h206.1C370.6,28,379.9,37.3,379.9,48.8L379.9,48.8z"/>
							<path class="st3" d="M379.9,114.1v128.7H263.4l-16,20.4c-2,2.5-5.9,2.5-7.9,0l-16-20.4h-30.2c-2.8,0-5-2.2-5-5V119.1
								c0-2.8,2.2-5,5-5H379.9z"/>
							<path class="st4" d="M379.9,296.4v128.7h-97.1c-2.8,0-5-2.2-5-5V301.4c0-2.8,2.2-5,5-5H313l16-20.4c2-2.5,5.9-2.5,7.9,0
								l16,20.4H379.9z"/>
							<path class="st5" d="M323.5,56l8.5-28H180l8.5,28c1.3,4.2,5.2,7.1,9.6,7.1H314C318.4,63.1,322.3,60.2,323.5,56z"/>
						</g>
					</g>
					<g>
						<circle class="st6" cx="212" cy="45.6" r="4.9"/>
					</g>
					<g>
						<circle class="st6" cx="228.3" cy="45.6" r="4.9"/>
					</g>
					<g>
						<path class="st7" d="M296.6,50.4h-37.2c-2.6,0-4.7-2.1-4.7-4.7s2.1-4.7,4.7-4.7h37.2c2.6,0,4.7,2.1,4.7,4.7
							S299.2,50.4,296.6,50.4z"/>
					</g>
				</g>
			</g>
			<path class="st8" d="M417.4,94H193.2c-2.8,0-5,2.2-5,5v118.7c0,2.8,2.2,5,5,5h30.2l16,20.4c2,2.5,5.9,2.5,7.9,0l16-20.4h154
				c2.8,0,5-2.2,5-5V99C422.4,96.2,420.2,94,417.4,94L417.4,94z"/>
			<g>
				<path class="st9" d="M477,405H282.8c-2.8,0-5-2.2-5-5V281.3c0-2.8,2.2-5,5-5H313l16-20.4c2-2.5,5.9-2.5,7.9,0l16,20.4h124
					c2.8,0,5,2.2,5,5V400C482,402.7,479.8,405,477,405L477,405z"/>
				<path class="st10" d="M477,271.3h-92.1V230c0-0.8-0.2-1.6-0.6-2.3h33.1c5.5,0,10-4.5,10-10V99c0-5.5-4.5-10-10-10h-32.5l0-40.2
					c0-14.2-11.6-25.8-25.8-25.8H152.9c-14.2,0-25.8,11.6-25.8,25.8v392.3c0,14.2,11.6,25.8,25.8,25.8h206.1
					c14.2,0,25.8-11.6,25.8-25.8V410H477c5.5,0,10-4.5,10-10V281.3C487,275.8,482.5,271.3,477,271.3L477,271.3z M325.3,33l-6.5,21.6
					c-0.6,2.1-2.6,3.6-4.8,3.6H198c-2.2,0-4.1-1.4-4.8-3.6L186.7,33H325.3z M477,400H282.8v-30.5c0-2.8-2.2-5-5-5s-5,2.2-5,5V400
					c0,5.5,4.5,10,10,10h92.1v31.2c0,8.7-7.1,15.8-15.8,15.8H152.9c-8.7,0-15.8-7.1-15.8-15.8V48.8c0-8.7,7.1-15.8,15.8-15.8h23.3
					l7.4,24.5c1.9,6.4,7.7,10.7,14.4,10.7H314c6.7,0,12.4-4.3,14.4-10.7l7.4-24.5h23.3c8.7,0,15.8,7.1,15.8,15.8l0,45.2
					c0,2.8,2.2,5,5,5h37.5v118.7h-154c-1.5,0-3,0.7-3.9,1.9l-16,20.4l-16-20.4c-0.9-1.2-2.4-1.9-3.9-1.9h-30.2V99h152.7
					c2.8,0,5-2.2,5-5s-2.2-5-5-5H193.2c-5.5,0-10,4.5-10,10v118.7c0,5.5,4.5,10,10,10H221l14.5,18.4c1.9,2.4,4.8,3.8,7.9,3.8
					c3.1,0,5.9-1.4,7.9-3.8l14.5-18.4h109.7c-0.4,0.7-0.6,1.5-0.6,2.3v41.3h-19.5l-14.5-18.4c-1.9-2.4-4.8-3.8-7.9-3.8
					s-5.9,1.4-7.9,3.8l-14.5,18.4h-27.8c-5.5,0-10,4.5-10,10v54.2c0,2.8,2.2,5,5,5s5-2.2,5-5v-54.2H313c1.5,0,3-0.7,3.9-1.9l16-20.4
					l16,20.4c0.9,1.2,2.4,1.9,3.9,1.9h124L477,400L477,400z"/>
			</g>
			<path class="st8" d="M239,294.8c-6.7-6.7-17.6-6.7-24.3,0l-11.9,11.9l-11.9-11.9c-6.7-6.7-17.6-6.7-24.3,0s-6.7,17.6,0,24.3
				l32.5,32.5c2.1,2.1,5.5,2.1,7.6,0l32.5-32.5C245.7,312.4,245.7,301.5,239,294.8L239,294.8z"/>
			<g>
				<g>
					<path class="st5" d="M163.1,372.9h79.2c2.6,0,4.7,2.1,4.7,4.7s-2.1,4.7-4.7,4.7h-79.2c-2.6,0-4.7-2.1-4.7-4.7
						S160.5,372.9,163.1,372.9z"/>
				</g>
				<g>
					<path class="st5" d="M163.1,388.7h58.2c2.6,0,4.7,2.1,4.7,4.7s-2.1,4.7-4.7,4.7h-58.2c-2.6,0-4.7-2.1-4.7-4.7
						S160.5,388.7,163.1,388.7z"/>
				</g>
			</g>
			<circle class="st6" cx="166.7" cy="258.5" r="7.8"/>
			<g>
				<circle class="st11" cx="347.2" cy="341.8" r="7.8"/>
				<circle class="st11" cx="379.9" cy="341.8" r="7.8"/>
				<circle class="st11" cx="412.6" cy="341.8" r="7.8"/>
			</g>
			<g>
				<path class="st11" d="M325.9,119.7h58.2c2.6,0,4.7,2.1,4.7,4.7s-2.1,4.7-4.7,4.7h-58.2c-2.6,0-4.7-2.1-4.7-4.7
					S323.3,119.7,325.9,119.7z"/>
			</g>
			<g>
				<path class="st11" d="M231.8,147.5h152.3c2.6,0,4.7,2.1,4.7,4.7s-2.1,4.7-4.7,4.7H231.8c-2.6,0-4.7-2.1-4.7-4.7
					S229.2,147.5,231.8,147.5z"/>
			</g>
			<g>
				<path class="st11" d="M261.8,166.3h122.3c2.6,0,4.7,2.1,4.7,4.7s-2.1,4.7-4.7,4.7H261.8c-2.6,0-4.7-2.1-4.7-4.7
					S259.2,166.3,261.8,166.3z"/>
			</g>
			<g>
				<path class="st11" d="M231.8,185h152.3c2.6,0,4.7,2.1,4.7,4.7s-2.1,4.7-4.7,4.7H231.8c-2.6,0-4.7-2.1-4.7-4.7
					S229.2,185,231.8,185z"/>
			</g>
		</g>
		<path class="st11" d="M0,0"/>
		<g>
			<path class="st12" d="M71.1,130.1c-1.3,0-2.6-0.5-3.5-1.5l-11-11c-2-2-2-5.1,0-7.1l11-11c2-2,5.1-2,7.1,0l11,11c2,2,2,5.1,0,7.1
				l-11,11C73.7,129.7,72.4,130.1,71.1,130.1z M67.2,114.1l3.9,3.9l3.9-3.9l-3.9-3.9L67.2,114.1z"/>
		</g>
		<g>
			<path class="st13" d="M82.1,183.9c-7.2,0-13-5.8-13-13s5.8-13,13-13s13,5.8,13,13S89.3,183.9,82.1,183.9z M82.1,167.9
				c-1.7,0-3,1.4-3,3s1.4,3,3,3s3-1.4,3-3C85.1,169.3,83.8,167.9,82.1,167.9z"/>
		</g>
		<g>
			<path class="st6" d="M439,78.7c-7.2,0-13-5.8-13-13s5.8-13,13-13s13,5.8,13,13S446.2,78.7,439,78.7z M439,62.7c-1.7,0-3,1.4-3,3
				s1.4,3,3,3s3-1.4,3-3S440.7,62.7,439,62.7z"/>
		</g>
		<g>
			<path class="st6" d="M82.1,383.2c-1.3,0-2.6-0.5-3.5-1.5l-11.3-11.3c-0.9-0.9-1.5-2.2-1.5-3.5s0.5-2.6,1.5-3.5l11.3-11.3
				c0.9-0.9,2.2-1.5,3.5-1.5c1.3,0,2.6,0.5,3.5,1.5l11.3,11.3c2,2,2,5.1,0,7.1l-11.3,11.3C84.7,382.7,83.4,383.2,82.1,383.2z
				 M77.9,366.9l4.2,4.2l4.2-4.2l-4.2-4.2L77.9,366.9z"/>
		</g>
		<g>
			<path class="st13" d="M420.4,468.8c-1.3,0-2.6-0.5-3.5-1.5L405.5,456c-2-2-2-5.1,0-7.1l11.3-11.3c0.9-0.9,2.2-1.5,3.5-1.5
				s2.6,0.5,3.5,1.5l11.3,11.3c2,2,2,5.1,0,7.1l-11.3,11.3C423,468.2,421.7,468.8,420.4,468.8z M416.1,452.5l4.2,4.2l4.2-4.2
				l-4.2-4.2L416.1,452.5z"/>
		</g>
	</g>
</g>
</svg>
