<?xml version="1.0" encoding="utf-8"?>
<!-- Generator: Adobe Illustrator 23.0.5, SVG Export Plug-In . SVG Version: 6.00 Build 0)  -->
<svg version="1.1" id="Layer_1" xmlns="http://www.w3.org/2000/svg" xmlns:xlink="http://www.w3.org/1999/xlink" x="0px" y="0px"
	 viewBox="0 0 512 512" style="enable-background:new 0 0 512 512;" xml:space="preserve">
<style type="text/css">
	.st0{fill:url(#SVGID_1_);}
	.st1{fill:url(#SVGID_2_);}
	.st2{fill:url(#SVGID_3_);}
	.st3{fill:url(#SVGID_4_);}
	.st4{fill:url(#SVGID_5_);}
	.st5{fill:url(#SVGID_6_);}
	.st6{fill:url(#SVGID_7_);}
	.st7{fill:url(#SVGID_8_);}
	.st8{fill:#2F55D4;}
	.st9{fill:#DD006F;}
</style>
<title>customer interaction</title>
<linearGradient id="SVGID_1_" gradientUnits="userSpaceOnUse" x1="105.617" y1="313.9468" x2="223.479" y2="313.9468">
	<stop  offset="0" style="stop-color:#C7D3FF"/>
	<stop  offset="0.593" style="stop-color:#E7D8F5"/>
	<stop  offset="0.997" style="stop-color:#FFDBED"/>
</linearGradient>
<path class="st0" d="M206.2,345.1c-0.3-0.8-0.5-1.6-0.5-2.5c0-8.7-0.1-18.6-0.1-19.8c-2.5-47.9-42.1-85.4-90.1-85.3
	c-0.3,0-0.7,0-1,0c-0.8,0-1.6,0-2.3,0.1c-2.2,0.1-4.4,0.3-6.6,0.5c43.8,4.8,77.7,40.7,80,84.7c0.1,1.2,0.1,11.1,0.1,19.8
	c0,0.8,0.2,1.7,0.5,2.5l17.3,45.2h20L206.2,345.1z"/>
<linearGradient id="SVGID_2_" gradientUnits="userSpaceOnUse" x1="100.9" y1="465.097" x2="146.157" y2="465.097">
	<stop  offset="0" style="stop-color:#C7D3FF"/>
	<stop  offset="0.593" style="stop-color:#E7D8F5"/>
	<stop  offset="0.997" style="stop-color:#FFDBED"/>
</linearGradient>
<path class="st1" d="M128.1,443.6L128.1,443.6c-9.7,0-18.1,6.5-20.4,15.8l-6.8,27.1h20l6.8-27.1c2.2-8.6,9.6-15,18.5-15.8
	C141.6,443.7,135.6,443.7,128.1,443.6z"/>
<linearGradient id="SVGID_3_" gradientUnits="userSpaceOnUse" x1="158.986" y1="417.075" x2="198.714" y2="417.075">
	<stop  offset="0" style="stop-color:#C7D3FF"/>
	<stop  offset="0.593" style="stop-color:#E7D8F5"/>
	<stop  offset="0.997" style="stop-color:#FFDBED"/>
</linearGradient>
<path class="st2" d="M171.7,397.3v31.9c0,7.3-5.4,13.5-12.7,14.5c10.8,0.1,16.7,0.1,17.7,0.1c8.1,0.2,14.8-6.1,15-14.2
	c0-0.1,0-0.3,0-0.4v-31.9c0-3.9,3.1-7,7-7l0,0h-20C174.8,390.3,171.7,393.5,171.7,397.3z"/>
<linearGradient id="SVGID_4_" gradientUnits="userSpaceOnUse" x1="288.529" y1="313.9454" x2="397.473" y2="313.9454">
	<stop  offset="0" style="stop-color:#C7D3FF"/>
	<stop  offset="0.593" style="stop-color:#E7D8F5"/>
	<stop  offset="0.997" style="stop-color:#FFDBED"/>
</linearGradient>
<path class="st3" d="M326.2,342.6c0-8.7,0.1-18.6,0.1-19.8c2.1-40.6,31.3-74.8,71.1-83.2v-2l0,0c-48.3-0.7-88.6,37-91.1,85.2
	c-0.1,1.2-0.1,11.1-0.1,19.8c0,0.8-0.2,1.7-0.5,2.5l-17.3,45.2h20l17.3-45.2C326.1,344.3,326.2,343.5,326.2,342.6z"/>
<linearGradient id="SVGID_5_" gradientUnits="userSpaceOnUse" x1="346.2" y1="426.378" x2="373.282" y2="426.378">
	<stop  offset="0" style="stop-color:#C7D3FF"/>
	<stop  offset="0.593" style="stop-color:#E7D8F5"/>
	<stop  offset="0.997" style="stop-color:#FFDBED"/>
</linearGradient>
<path class="st4" d="M373.2,427c-0.1-3.8-3.2-6.9-7-6.9h-20c3.8,0,6.9,3.1,7,6.9l0.1,5.6l18.2-0.1c0.6,0,1.2,0,1.8-0.1L373.2,427z"
	/>
<linearGradient id="SVGID_6_" gradientUnits="userSpaceOnUse" x1="313.286" y1="405.2305" x2="340.286" y2="405.2305">
	<stop  offset="0" style="stop-color:#C7D3FF"/>
	<stop  offset="0.593" style="stop-color:#E7D8F5"/>
	<stop  offset="0.997" style="stop-color:#FFDBED"/>
</linearGradient>
<path class="st5" d="M340.3,420.1v-22.8c0-3.9-3.1-7-7-7h-20c3.9,0,7,3.1,7,7v22.8H340.3z"/>
<linearGradient id="SVGID_7_" gradientUnits="userSpaceOnUse" x1="374.318" y1="362.723" x2="461.0994" y2="362.723">
	<stop  offset="0" style="stop-color:#C7D3FF"/>
	<stop  offset="0.593" style="stop-color:#E7D8F5"/>
	<stop  offset="0.997" style="stop-color:#FFDBED"/>
</linearGradient>
<path class="st6" d="M394.3,446.4c20.8-1.6,36.7-19,36.5-39.9l-0.1-6.8c17.7-3,30.5-18.4,30.3-36.3l0-3.7
	c-0.3-17.3-12.6-31.9-29.6-35.2v-79.3c-6.4-3-13.1-5.1-20-6.4v85.7c17,3.2,29.3,17.9,29.6,35.2l0,3.7c0.2,17.9-12.6,33.3-30.3,36.3
	l0.1,6.8c0.2,20.8-15.8,38.3-36.5,39.9c5,2.8,8.6,7.6,10,13.1l6.8,27.1h20l-6.8-27.1C402.9,453.9,399.3,449.2,394.3,446.4z"/>
<linearGradient id="SVGID_8_" gradientUnits="userSpaceOnUse" x1="44.793" y1="109.1415" x2="129.148" y2="109.1415">
	<stop  offset="0" style="stop-color:#C7D3FF"/>
	<stop  offset="0.593" style="stop-color:#E7D8F5"/>
	<stop  offset="0.997" style="stop-color:#FFDBED"/>
</linearGradient>
<path class="st7" d="M125.1,147c-0.7-3.2-3.6-5.4-6.8-5.4H89.1c-7.9,0-14.3-6.4-14.3-14.3V29.8c0-1.5,0.2-2.9,0.7-4.3H59.1
	c-7.9,0-14.3,6.4-14.3,14.3v97.5c0,7.9,6.4,14.3,14.3,14.3h29.2c3.3,0,6.1,2.2,6.8,5.4l8.3,35.8l25.7-28.4L125.1,147z"/>
<path class="st8" d="M482,365.4c15.4-29.7,14.5-65.2-2.4-94c-16.4-28.6-46.4-46.6-79.3-47.8c-0.9,0-1.8-0.1-2.7-0.1
	c-55.8-0.8-102.3,42.7-105.2,98.4c-0.1,1.7-0.1,13.9-0.2,19.3L274.1,389c-2.2,5.8,0.7,12.4,6.5,14.6c1.3,0.5,2.7,0.7,4,0.7h21.7
	v15.9c-10.8,0.6-19.2,9.6-19,20.4c0.2,11,9.2,19.9,20.2,19.9h0.2l39-0.6c1.9,0,3.7-0.8,5-2.2c4.1,0,8.5,0,12.3-0.1
	c3.2,0,6,2.2,6.8,5.3l8.1,32.4c0.8,3.1,3.6,5.3,6.8,5.3h90.5c3.9,0,7-3.1,7-7c0-0.6-0.1-1.2-0.2-1.8c-0.1-0.6-15-56.9-11.7-92.1
	C471.9,391.7,479.1,372.6,482,365.4z M405,386.2h-0.2c-12.2,0-22.1-9.8-22.3-22l0-3.7c-0.2-12.3,9.7-22.4,22-22.6c0,0,0.1,0,0.1,0
	h0.2c12.2,0,22.1,9.8,22.3,22l0,3.7C427.3,375.9,417.4,386.1,405,386.2C405.1,386.2,405,386.2,405,386.2z M307.5,446.5L307.5,446.5
	c-3.5,0-6.3-2.8-6.3-6.2c0-1.6,0.6-3.2,1.8-4.3c1.1-1.2,2.7-1.8,4.3-1.9h32l0.2,11.9L307.5,446.5z M320.3,420.1v-22.8
	c0-3.9-3.1-7-7-7h-24.8l17.3-45.2c0.3-0.8,0.5-1.6,0.5-2.5c0-8.7,0.1-18.6,0.1-19.8c2.5-48.3,42.8-85.9,91.1-85.2l0,0v87.1
	c-17.1,3.5-29.3,18.6-29,36.1l0,3.7c0.3,16.8,12,31.2,28.3,34.9l0.1,7.3c0.1,14.1-11.2,25.7-25.4,25.9l-18.2,0.1l-0.1-5.6
	c-0.1-3.8-3.2-6.9-7-6.9L320.3,420.1z M469.4,359.3c-0.1,0.2-0.2,0.4-0.3,0.6c-1.1,2.7-10.8,27-11.9,38.5
	c-2.7,29.3,5.8,70.3,10,88.2h-76.1l-6.8-27.1c-1.4-5.6-5-10.3-10-13.1c20.8-1.6,36.7-19,36.5-39.9l-0.1-6.8
	c17.7-3,30.5-18.4,30.3-36.3l0-3.7c-0.3-17.3-12.6-31.9-29.6-35.2v-85.7c23.6,4.3,44.1,18.8,56.1,39.5
	C482.1,303.2,482.8,333.8,469.4,359.3L469.4,359.3z"/>
<path class="st8" d="M40.8,399.7c3.3,35.1-11.6,91.5-11.7,92.1c-1,3.7,1.2,7.6,5,8.6c0.6,0.2,1.2,0.2,1.8,0.2h90.5
	c3.2,0,6-2.2,6.8-5.3l8.1-32.4c0.8-3.1,3.6-5.3,6.7-5.3h0c23.9,0.1,27.7,0.1,28.2,0.2c7.7,0.2,15.2-2.7,20.8-8.1
	c5.6-5.4,8.7-12.8,8.7-20.5v-24.9h21.7c6.3,0,11.3-5.1,11.3-11.3c0-1.4-0.3-2.7-0.7-4l-18.2-47.7c0-5.4-0.1-17.6-0.2-19.3
	c-2.9-55.3-48.7-98.6-104-98.5c-0.4,0-0.8,0-1.2,0c-0.9,0-1.8,0-2.7,0.1c-32.9,1.2-62.9,19.2-79.3,47.8c-16.9,28.8-17.8,64.4-2.4,94
	C32.9,372.6,40.1,391.7,40.8,399.7z M44.5,278.4c14-24.4,39.6-39.8,67.7-40.8c0.8,0,1.6,0,2.3-0.1c0.3,0,0.7,0,1,0
	c47.9-0.1,87.5,37.4,90.1,85.3c0.1,1.2,0.1,11.1,0.1,19.8c0,0.8,0.2,1.7,0.5,2.5l17.3,45.2h-24.8c-3.9,0-7,3.1-7,7v31.9
	c0,8.1-6.5,14.6-14.6,14.6c-0.1,0-0.3,0-0.4,0c-1.3,0-10.9-0.1-28.6-0.2H148c-9.6,0-18,6.5-20.3,15.8l-6.8,27.1H44.8
	c4.2-17.8,12.7-58.9,10-88.2c-1.1-11.5-10.8-35.8-11.9-38.5c-0.1-0.2-0.2-0.4-0.3-0.6C29.2,333.8,29.9,303.2,44.5,278.4z"/>
<path class="st9" d="M407.2,212.1c2.6,2.9,7,3.1,9.9,0.5c1.1-1,1.8-2.2,2.1-3.6l10.1-43.4h23.6c15.6,0,28.3-12.7,28.3-28.3V39.8
	c0-15.6-12.7-28.3-28.3-28.3H59.1c-15.6,0-28.3,12.7-28.3,28.3v97.5c0,15.6,12.7,28.3,28.3,28.3h23.6L92.8,209
	c0.9,3.8,4.6,6.1,8.4,5.2c1.4-0.3,2.6-1.1,3.6-2.1l42.2-46.6h218L407.2,212.1z M143.9,151.6c-2,0-3.9,0.8-5.2,2.3l-35.3,39L95.1,157
	c-0.7-3.2-3.6-5.4-6.8-5.4H59.1c-7.9,0-14.3-6.4-14.3-14.3V39.8c0-7.9,6.4-14.3,14.3-14.3h393.8c7.9,0,14.3,6.4,14.3,14.3v97.5
	c0,7.9-6.4,14.3-14.3,14.3h-29.2c-3.3,0-6.1,2.2-6.8,5.4l-8.3,35.8l-35.3-39c-1.3-1.5-3.2-2.3-5.2-2.3L143.9,151.6z"/>
<path class="st9" d="M426.9,125.4c0-3.9-3.1-7-7-7H233.6c-3.9,0-7,3.1-7,7c0,3.9,3.1,7,7,7h186.3
	C423.7,132.4,426.9,129.3,426.9,125.4z"/>
<path class="st9" d="M211.5,118.4h-47.7c-3.9,0-7,3.1-7,7c0,3.9,3.1,7,7,7h47.7c3.9,0,7-3.1,7-7
	C218.5,121.6,215.3,118.4,211.5,118.4z"/>
<path class="st9" d="M419.9,82.8H395c-3.9,0-7,3.1-7,7s3.1,7,7,7h24.9c3.9,0,7-3.1,7-7S423.7,82.8,419.9,82.8L419.9,82.8z"/>
<path class="st9" d="M255.6,82.8c-3.9,0-7,3.1-7,7s3.1,7,7,7h116c3.9,0,7-3.1,7-7s-3.1-7-7-7H255.6z"/>
<path class="st9" d="M340.7,61.2h79.2c3.9,0,7-3.1,7-7s-3.1-7-7-7h-79.2c-3.9,0-7,3.1-7,7S336.9,61.2,340.7,61.2z"/>
<path class="st9" d="M135.6,118.4H72.8c-3.9,0-7,3.1-7,7c0,3.9,3.1,7,7,7h62.8c3.9,0,7-3.1,7-7C142.6,121.6,139.5,118.4,135.6,118.4
	z"/>
<path class="st9" d="M239.3,89.8c0-3.9-3.1-7-7-7H72.8c-3.9,0-7,3.1-7,7s3.1,7,7,7h159.5C236.1,96.8,239.3,93.7,239.3,89.8z"/>
<path class="st9" d="M153.1,61.2h164.3c3.9,0,7-3.1,7-7s-3.1-7-7-7H153.1c-3.9,0-7,3.1-7,7S149.2,61.2,153.1,61.2z"/>
<path class="st9" d="M72.8,61.2h57.1c3.9,0,7-3.1,7-7s-3.1-7-7-7H72.8c-3.9,0-7,3.1-7,7S68.9,61.2,72.8,61.2z"/>
</svg>
