<?xml version="1.0" encoding="utf-8"?>
<!-- Generator: Adobe Illustrator 23.0.5, SVG Export Plug-In . SVG Version: 6.00 Build 0)  -->
<svg version="1.1" id="Capa_1" xmlns="http://www.w3.org/2000/svg" xmlns:xlink="http://www.w3.org/1999/xlink" x="0px" y="0px"
	 viewBox="0 0 512 512" style="enable-background:new 0 0 512 512;" xml:space="preserve">
<style type="text/css">
	.st0{fill:url(#SVGID_1_);}
	.st1{opacity:0.11;fill:#2626BC;enable-background:new    ;}
	.st2{fill:#FF7EB8;}
	.st3{fill:#8399FE;}
	.st4{fill:#01ECA5;}
	.st5{fill:#FFA8CF;}
	.st6{fill:#6583FE;}
	.st7{fill:#FFDBED;}
	.st8{fill:#B7C5FF;}
	.st9{fill:#D2DEFF;}
	.st10{fill:#1E84BA;}
	.st11{fill:#FFFFFF;}
</style>
<linearGradient id="SVGID_1_" gradientUnits="userSpaceOnUse" x1="432.3333" y1="9.8855" x2="198.3333" y2="319.8855" gradientTransform="matrix(1 0 0 -1 0 512)">
	<stop  offset="0" style="stop-color:#C7D3FF"/>
	<stop  offset="0.593" style="stop-color:#E7D8F5"/>
	<stop  offset="0.997" style="stop-color:#FFDBED"/>
</linearGradient>
<path class="st0" d="M501.9,153.1c-22.4-56.9-91.2-91-149.6-68.4c-66.6,25.8-44.5,131.7-105,153.1c-32.7,11.6-81-31.6-114-38.3
	C72.5,187.2,17.5,230.1,3.9,289.6c-13.8,60.6,8.4,141.6,75,158.1c79.3,19.6,120.7-51.7,187.2-72.2c68.3-21,144.3,28.6,200.8-31.8
	C508.7,299,524,209.4,501.9,153.1z"/>
<path class="st1" d="M373,275.1c19.1-18.6,26-47.7,15.2-73.8s-36.3-41.8-62.9-41.5l-12.9-31.1c-3.9-9.3-12.4-15.3-21.8-16.3
	c-6.8-0.7-13.9,1.2-19.2,5.4c-8.7,6.8-12.6,18.5-9.1,29.3L242,158.8c-3.6-19.8-20.5-35.1-40.9-36.4c-27-1.7-49.2,20.5-47.5,47.5
	c0.8,12.2,6.5,23.1,15.3,30.7l-69.9,39.9c-1.8,1-3.4,2.2-4.9,3.5c-8.7,7.8-12,20.4-7.6,31.7c0,0,0,0,0,0
	c-23.9,9.9-35.2,37.2-25.3,61.1s37.2,35.2,61.1,25.3c0,0,0,0,0,0c5.7,12.9,20,19.8,33.7,16.1l17-4.6l33.5,81
	c5,12.1,19,17.9,31.1,12.9l18.4-7.6c6.7-2.8,10.4-9.9,9-17l-4.2-20.3l27.9-11.5c6.1-2.5,9-9.5,6.5-15.6l-20.5-49.5l62.9-17.2
	c6.5,12.6,22.2,18,35,12c12.8-5.9,18.8-21.4,13.4-34.4L373,275.1z"/>
<path class="st2" d="M423.9,336.7h-3.3v-3.3c0-2.8-2.2-5-5-5s-5,2.2-5,5v3.3h-3.3c-2.8,0-5,2.2-5,5s2.2,5,5,5h3.3v3.3
	c0,2.8,2.2,5,5,5s5-2.2,5-5v-3.3h3.3c2.8,0,5-2.2,5-5S426.7,336.7,423.9,336.7z"/>
<path class="st3" d="M310.2,51.1h-3.3v-3.3c0-2.8-2.2-5-5-5s-5,2.2-5,5v3.3h-3.3c-2.8,0-5,2.2-5,5s2.2,5,5,5h3.3v3.3
	c0,2.8,2.2,5,5,5s5-2.2,5-5v-3.3h3.3c2.8,0,5-2.2,5-5S312.9,51.1,310.2,51.1z"/>
<path class="st4" d="M122.8,157.5h-3.3v-3.3c0-2.8-2.2-5-5-5s-5,2.2-5,5v3.3h-3.3c-2.8,0-5,2.2-5,5s2.2,5,5,5h3.3v3.3
	c0,2.8,2.2,5,5,5s5-2.2,5-5v-3.3h3.3c2.8,0,5-2.2,5-5S125.5,157.5,122.8,157.5z"/>
<path class="st4" d="M338.2,425c-3.7,0-7.5-1.4-10.3-4.3c-5.7-5.7-5.7-15,0-20.7s15-5.7,20.6,0s5.7,15,0,20.7h0
	C345.7,423.5,342,425,338.2,425L338.2,425z M345,417.2L345,417.2L345,417.2z M338.2,405.8c-1.2,0-2.4,0.4-3.3,1.3
	c-1.8,1.8-1.8,4.7,0,6.5c1.8,1.8,4.7,1.8,6.5,0c1.8-1.8,1.8-4.7,0-6.5C340.6,406.2,339.4,405.8,338.2,405.8L338.2,405.8z"/>
<path class="st3" d="M110.3,406.1c-2.8,0-5.5-0.8-7.9-2.4c-6.7-4.4-8.7-13.5-4.3-20.2c4.4-6.7,13.5-8.7,20.2-4.3
	c3.3,2.1,5.5,5.4,6.3,9.2s0.1,7.7-2.1,11s-5.4,5.5-9.2,6.3C112.3,406,111.3,406.1,110.3,406.1L110.3,406.1z M110.3,386.9
	c-1.5,0-3,0.7-3.9,2.1c-1.4,2.1-0.8,5,1.3,6.4c1,0.7,2.3,0.9,3.5,0.6c1.2-0.3,2.2-1,2.9-2h0c0.7-1,0.9-2.3,0.6-3.5
	c-0.3-1.2-1-2.2-2-2.9C112,387.1,111.2,386.9,110.3,386.9z"/>
<circle class="st3" cx="116.3" cy="300.6" r="46.7"/>
<path class="st5" d="M300.5,392.6l-39.1,16.2l-23.1-55.8l-12.4-29.9l50.2-20.8l15,36.2L307,377C309.5,383.1,306.6,390.1,300.5,392.6
	L300.5,392.6z"/>
<path class="st2" d="M291.1,338.6l-52.8,14.4l-12.4-29.9l50.2-20.8L291.1,338.6z"/>
<path class="st3" d="M267.9,441.4l-18.4,7.6c-12.1,5-26.1-0.7-31.1-12.9l-28.9-69.8l-7.2-17.3L255,319l5.8,28l16.1,77.5
	C278.4,431.5,274.6,438.7,267.9,441.4L267.9,441.4z"/>
<path class="st4" d="M260.8,346.9l-71.3,19.5l-7.2-17.3L255,319L260.8,346.9z"/>
<path class="st3" d="M373.9,303.6l-206,56.2c-13.9,3.8-28.5-3.3-34-16.7L98.7,258c-5.5-13.3-0.3-28.6,12.3-35.8l185.4-105.9
	L373.9,303.6z"/>
<path class="st6" d="M253.6,202.5c1.3,2.9-1.7,5.9-4.6,4.6l-14.2-6.3c-8.1,5.3-17.9,8.1-28.5,7.2c-14.3-1.2-26.8-9.3-34-20.9
	l77.4-44.2c2.7,5.1,4.4,10.8,4.9,16.8c0.9,10.6-1.9,20.4-7.2,28.5L253.6,202.5z"/>
<path class="st7" d="M282.7,277.1L230,291.5c-3.5,0.9-5.3,4.7-4,8.1l5.9,14.3c1.2,2.8,4.2,4.3,7.1,3.5l52.8-14.4
	c3.5-0.9,5.3-4.7,4-8.1l-5.9-14.3C288.7,277.8,285.6,276.3,282.7,277.1z"/>
<path class="st8" d="M235.2,266.6l-14,3.8c-3.5,0.9-5.3,4.7-4,8.1l0.4,1c1.2,2.8,4.2,4.3,7.1,3.5l14-3.8c3.5-0.9,5.3-4.7,4-8.1
	l-0.4-1C241.1,267.3,238.1,265.8,235.2,266.6z"/>
<path class="st9" d="M157.3,195.7l62.2,150.1l-51.5,14.1c-13.9,3.8-28.5-3.3-34-16.7L98.7,258c-5.5-13.3-0.3-28.6,12.2-35.8
	L157.3,195.7z"/>
<path class="st7" d="M312.4,146.7c34.3-14.2,73.6,2.1,87.8,36.3s-2.1,73.6-36.3,87.8L312.4,146.7z"/>
<path class="st2" d="M383.4,322.8c-13.6,5.6-29.3-0.8-34.9-14.5L275,130.9c-5.6-13.6,0.8-29.3,14.5-34.9
	c13.6-5.6,29.3,0.8,34.9,14.5l73.5,177.4C403.5,301.5,397,317.1,383.4,322.8L383.4,322.8z"/>
<path class="st5" d="M324.4,110.5l73.5,177.4c5.6,13.6-0.8,29.3-14.5,34.9c-3,1.2-6,1.9-9.1,2c8-7.4,11-19.2,6.6-29.9l-73.5-177.4
	c-2.8-6.8-8.1-11.8-14.5-14.5c-3.5-1.5-7.4-2.2-11.3-2c2.2-2.1,4.9-3.8,7.8-5c6.8-2.8,14.1-2.6,20.4,0
	C316.2,98.7,321.5,103.7,324.4,110.5L324.4,110.5z"/>
<path class="st2" d="M146.2,301.8l-34.6,14.3c-6.3,2.6-13.4-0.4-16-6.6c-2.6-6.3,0.4-13.4,6.6-16l34.6-14.3L146.2,301.8z"/>
<path class="st3" d="M165.6,151.6c-1.7-27,20.5-49.2,47.5-47.5c21.8,1.4,39.7,18.8,41.5,40.6c0.9,10.6-1.9,20.4-7.2,28.5l6.3,14.2
	c1.3,2.9-1.7,5.9-4.6,4.6l-14.2-6.3c-8.1,5.3-17.9,8.1-28.5,7.2C184.4,191.2,167,173.4,165.6,151.6L165.6,151.6z"/>
<g>
	<path class="st10" d="M426.2,175.8l9.5-3.9c2.6-1.1,3.8-4,2.7-6.5s-4-3.8-6.5-2.7l-9.5,3.9c-2.6,1.1-3.8,4-2.7,6.5
		c0.8,1.9,2.7,3.1,4.6,3.1C424.9,176.2,425.5,176.1,426.2,175.8z"/>
	<path class="st10" d="M419.5,137.3c-2.4-1.4-5.4-0.7-6.9,1.6l-6.6,10.8c-1.4,2.4-0.7,5.4,1.6,6.9c0.8,0.5,1.7,0.7,2.6,0.7
		c1.7,0,3.3-0.8,4.3-2.4l6.6-10.8C422.6,141.8,421.8,138.7,419.5,137.3z"/>
	<path class="st10" d="M441.1,192.5l-12.3-2.9c-2.7-0.6-5.4,1-6,3.7s1,5.4,3.7,6l12.3,2.9c0.4,0.1,0.8,0.1,1.2,0.1
		c2.3,0,4.3-1.5,4.9-3.8C445.5,195.9,443.8,193.2,441.1,192.5L441.1,192.5z"/>
	<path class="st10" d="M404.8,181.1c-10.9-26.2-35.9-43.5-64.2-44.5l-11.6-28c-3.2-7.8-9.3-13.9-17.2-17.2c-7.8-3.2-16.4-3.2-24.3,0
		c-7.8,3.2-13.9,9.3-17.2,17.2c-2.4,5.7-3,11.9-1.9,17.8l-11.3,6.5c-6.3-18.7-23.5-32.5-43.8-33.8c-14.3-0.9-28.3,4.3-38.3,14.4
		c-10.1,10.1-15.3,24.1-14.4,38.3c0.7,11.1,5.2,21.3,12.1,29.3l-64.3,36.7c-13.1,7.5-19.4,22.6-16,36.9
		c-23.7,12.3-34.1,40.9-23.9,65.7c8.2,19.8,27.5,32,47.8,32c5.1,0,10.4-0.8,15.5-2.4c6.2,9.9,17.1,15.9,28.6,15.9
		c2.9,0,5.9-0.4,8.8-1.2l85.3-23.3l17.5,84.1c1,4.7-1.5,9.5-6,11.3l-18.4,7.6c-9.6,4-20.6-0.6-24.6-10.2l-23.4-56.4
		c-1.1-2.6-4-3.8-6.5-2.7c-2.6,1.1-3.8,4-2.7,6.5l23.4,56.4c4.6,11.1,15.3,17.8,26.7,17.8c3.7,0,7.4-0.7,11-2.2l18.4-7.6
		c8.9-3.7,13.9-13.2,12-22.6l-3.4-16.2l24-10c8.6-3.6,12.8-13.5,9.2-22.2l-18.3-44.3l29-7.9c2.7-0.7,4.2-3.5,3.5-6.1
		c-0.7-2.7-3.5-4.2-6.1-3.5l-97.3,26.6l-58.8-141.9l16.8-9.6c7.2,5.4,15.9,9,25.4,9.8c1.5,0.1,2.9,0.2,4.4,0.2
		c8.8,0,17.4-2.3,25-6.8l11.8,5.2c3.2,1.4,7,0.7,9.5-1.8c2.5-2.5,3.2-6.2,1.8-9.5l-5.2-11.8c5.2-8.9,7.5-18.9,6.6-29.3
		c0-0.4-0.1-0.8-0.1-1.2l12.3-7l72.1,174.1c5.1,12.2,16.9,19.6,29.3,19.6c4,0,8.1-0.8,12.1-2.4c7.8-3.2,13.9-9.3,17.2-17.2
		s3.2-16.4,0-24.3l-11.6-28C410.1,237.3,415.6,207.3,404.8,181.1L404.8,181.1z M77.7,316.6c-8.1-19.6-0.2-42.1,18.1-52.3l9.4,22.6
		l-4.9,2c-4.3,1.8-7.6,5.1-9.3,9.3c-1.8,4.3-1.8,9,0,13.2c2.8,6.6,9.2,10.7,16,10.7c2.2,0,4.4-0.4,6.6-1.3l4.9-2l9.1,22.1
		C107.4,346.5,85.9,336.2,77.7,316.6z M139.6,299.1l-29.9,12.4c-3.7,1.5-8-0.2-9.5-3.9c-0.7-1.8-0.7-3.8,0-5.6
		c0.7-1.8,2.1-3.2,3.9-3.9l29.9-12.4L139.6,299.1z M302.4,378.9c1.5,3.5-0.2,7.6-3.8,9.1l-22.3,9.2l-12.1-58.5l19.4-5.3L302.4,378.9
		z M212.7,342.4L166.6,355c-11.4,3.1-23.5-2.8-28-13.7l-10.9-26.4l15.8-6.6l2.7,6.4c0.8,1.9,2.7,3.1,4.6,3.1c0.6,0,1.3-0.1,1.9-0.4
		c2.6-1.1,3.8-4,2.7-6.5l-18.8-45.3c-1.1-2.6-4-3.8-6.5-2.7c-2.6,1.1-3.8,4-2.7,6.5l2.9,7l-15.8,6.6l-11.1-26.9
		c-4.5-11-0.2-23.7,10.1-29.5l41.5-23.7L212.7,342.4z M242.7,175.2l4.7,10.7l-10.7-4.7c-1.6-0.7-3.4-0.5-4.8,0.4
		c-7.5,5-16.3,7.2-25.3,6.4c-19.3-1.6-34.8-17.5-36.1-36.8c-0.7-11.4,3.5-22.6,11.5-30.6c7.4-7.4,17.6-11.6,28.1-11.6
		c0.8,0,1.7,0,2.6,0.1c19.4,1.2,35.2,16.7,36.8,36.1c0.8,9.1-1.5,17.8-6.4,25.3C242.2,171.9,242,173.7,242.7,175.2L242.7,175.2z
		 M393.2,306.4c-2.2,5.4-6.4,9.5-11.7,11.7c-5.4,2.2-11.3,2.2-16.6,0s-9.5-6.4-11.8-11.8L279.6,129c-2.2-5.4-2.2-11.3,0-16.6
		c2.2-5.4,6.4-9.5,11.7-11.8c2.7-1.1,5.5-1.7,8.3-1.7c8.5,0,16.6,5.1,20.1,13.4l73.5,177.4C395.4,295.1,395.4,301.1,393.2,306.4
		L393.2,306.4z M386.6,247.6l-41.7-100.7c22.4,2.4,41.9,16.9,50.7,38S400.7,230,386.6,247.6L386.6,247.6z"/>
	<path class="st10" d="M166,306.5c0.8,1.9,2.7,3.1,4.6,3.1c0.6,0,1.3-0.1,1.9-0.4c2.6-1.1,3.8-4,2.7-6.5l-18.8-45.3
		c-1.1-2.6-4-3.8-6.5-2.7c-2.6,1.1-3.8,4-2.7,6.5L166,306.5z"/>
</g>
<circle class="st11" cx="190.2" cy="148.6" r="5.6"/>
<circle class="st11" cx="210.1" cy="148.6" r="5.6"/>
<circle class="st11" cx="230" cy="148.6" r="5.6"/>
</svg>
