<?xml version="1.0" encoding="utf-8"?>
<!-- Generator: Adobe Illustrator 23.0.5, SVG Export Plug-In . SVG Version: 6.00 Build 0)  -->
<svg version="1.1" id="Capa_1" xmlns="http://www.w3.org/2000/svg" xmlns:xlink="http://www.w3.org/1999/xlink" x="0px" y="0px"
	 viewBox="0 0 512 512" style="enable-background:new 0 0 512 512;" xml:space="preserve">
<style type="text/css">
	.st0{fill:url(#SVGID_1_);}
	.st1{opacity:0.11;fill:#2626BC;enable-background:new    ;}
	.st2{fill:#8399FE;}
	.st3{fill:#FF7EB8;}
	.st4{fill:#FFC4DF;}
	.st5{fill:#FFDBED;}
	.st6{fill:#97FFD2;}
	.st7{fill:#01ECA5;}
	.st8{fill:#FFA8CF;}
	.st9{fill:#B7C5FF;}
	.st10{fill:#D2DEFF;}
	.st11{fill:#02FFB3;}
	.st12{fill:#FFFFFF;}
	.st13{fill:#1E84BA;}
</style>
<linearGradient id="SVGID_1_" gradientUnits="userSpaceOnUse" x1="125.6693" y1="91.8258" x2="334.6693" y2="361.8258" gradientTransform="matrix(1 0 0 -1 0 512)">
	<stop  offset="0" style="stop-color:#C7D3FF"/>
	<stop  offset="0.593" style="stop-color:#E7D8F5"/>
	<stop  offset="0.997" style="stop-color:#FFDBED"/>
</linearGradient>
<path class="st0" d="M38.1,134.7C58.1,77,95.7-23.1,175.9,4.8c31.2,10.9,41,52.2,72.4,57.3c29.6,4.9,54.7-24.3,82.9-29.8
	c35-6.9,72.1,2.3,85.4,36.5c15.9,40.9-31,86.7-19.7,124.1c18.7,61.6,87.9-40.5,100.2,58.9c17.3,139-136.8,386.5-240.6,183
	c-52.6-103.2-107.8-30.8-189.9-82.2C-11.4,303.9,12.8,208,38.1,134.7L38.1,134.7z"/>
<path class="st1" d="M401.4,373.5h-20.7V180.4c0-11.5-9.3-20.9-20.8-20.9h-15.7c1.2-3.5,1.9-7.3,2.2-11.1
	c1.7-27-20.5-49.2-47.5-47.5c-21.8,1.4-39.7,18.8-41.5,40.6c-0.5,6.3,0.3,12.4,2.1,18H92c-11.5,0-20.8,9.3-20.8,20.9v193.1H50.5
	c-6.9,0-12.5,5.6-12.5,12.5v11.5c0,12.1,9.8,21.9,21.9,21.9H392c12.1,0,21.9-9.8,21.9-21.9V386C413.9,379.1,408.3,373.5,401.4,373.5
	L401.4,373.5z"/>
<path class="st2" d="M405,159.4v208.9c0,2.8-2.2,5-5,5H95.5V159.4c0-11.5,9.3-20.9,20.8-20.9h267.9C395.7,138.5,405,147.9,405,159.4
	z"/>
<path class="st3" d="M370.6,142.4c-1.4,21.8-18.8,39.7-40.6,41.5c-10.6,0.9-20.5-1.9-28.5-7.2l-14.2,6.3c-2.9,1.3-5.9-1.7-4.6-4.6
	l6.3-14.2c-4.8-7.3-7.6-16.1-7.4-25.5h89.2C370.7,139.8,370.7,141.1,370.6,142.4z"/>
<path class="st4" d="M268.1,297.2v6.5c0,1.7-1.3,3-3,3h-5.4c-1.7,0-3-1.3-3-3v-6.5c0-1.7,1.3-3,3-3h5.4
	C266.8,294.2,268.1,295.6,268.1,297.2z"/>
<path class="st5" d="M289.4,288.2v15.5c0,1.7-1.3,3-3,3H281c-1.7,0-3-1.3-3-3v-15.5c0-1.7,1.3-3,3-3h5.4
	C288.1,285.2,289.4,286.6,289.4,288.2z"/>
<path class="st4" d="M246.9,297.2v6.5c0,1.7-1.3,3-3,3h-5.4c-1.7,0-3-1.3-3-3v-6.5c0-1.7,1.3-3,3-3h5.4
	C245.6,294.2,246.9,295.6,246.9,297.2z"/>
<path class="st4" d="M225.6,297.2v6.5c0,1.7-1.3,3-3,3h-5.4c-1.7,0-3-1.3-3-3v-6.5c0-1.7,1.3-3,3-3h5.4
	C224.3,294.2,225.6,295.6,225.6,297.2z"/>
<path class="st3" d="M204.4,297.2v6.5c0,1.7-1.3,3-3,3H196c-1.7,0-3-1.3-3-3v-6.5c0-1.7,1.3-3,3-3h5.4
	C203.1,294.2,204.4,295.6,204.4,297.2z"/>
<path class="st5" d="M310.6,282.2v21.5c0,1.7-1.3,3-3,3h-5.4c-1.7,0-3-1.3-3-3v-21.5c0-1.7,1.3-3,3-3h5.4
	C309.3,279.2,310.6,280.6,310.6,282.2z"/>
<path class="st5" d="M331.9,288.2v15.5c0,1.7-1.3,3-3,3h-5.4c-1.7,0-3-1.3-3-3v-15.5c0-1.7,1.3-3,3-3h5.4
	C330.6,285.2,331.9,286.6,331.9,288.2z"/>
<path class="st6" d="M353.1,273.2v30.5c0,1.7-1.3,3-3,3h-5.4c-1.7,0-3-1.3-3-3v-30.5c0-1.7,1.3-3,3-3h5.4
	C351.8,270.2,353.1,271.6,353.1,273.2z"/>
<path class="st7" d="M374.4,258.2v45.5c0,1.7-1.3,3-3,3H366c-1.7,0-3-1.3-3-3v-45.5c0-1.7,1.3-3,3-3h5.4
	C373.1,255.2,374.4,256.6,374.4,258.2z"/>
<path class="st8" d="M405,327.7v40.6c0,2.8-2.2,5-5,5H95.5v-45.6H405z"/>
<path class="st9" d="M438.2,365v11.5c0,12.1-9.8,21.9-21.9,21.9H84.2c-12.1,0-21.9-9.8-21.9-21.9V365c0-6.9,5.6-12.5,12.5-12.5
	h107.1c1.8,0,3.5,1,4.4,2.7l6.6,12.3c0.9,1.6,2.6,2.7,4.4,2.7h106c1.8,0,3.5-1,4.4-2.7l6.6-12.3c0.9-1.6,2.6-2.7,4.4-2.7h107.1
	C432.6,352.5,438.2,358.1,438.2,365L438.2,365z"/>
<path class="st10" d="M438.2,365v11.5c0,12.1-9.8,21.9-21.9,21.9h-14.7c12.1,0,21.9-9.8,21.9-21.9V365c0-6.9-5.6-12.5-12.5-12.5
	h14.7C432.6,352.5,438.2,358.1,438.2,365z"/>
<path class="st11" d="M370.6,127.4c1.7-27-20.5-49.2-47.5-47.5c-21.8,1.4-39.7,18.8-41.5,40.6c-0.9,10.6,1.9,20.4,7.2,28.5
	l-6.3,14.2c-1.3,2.9,1.7,5.9,4.6,4.6l14.2-6.3c8,5.3,17.9,8.1,28.5,7.2C351.8,167.1,369.2,149.2,370.6,127.4L370.6,127.4z"/>
<circle class="st12" cx="306.2" cy="124.5" r="5.6"/>
<circle class="st12" cx="326.1" cy="124.5" r="5.6"/>
<circle class="st12" cx="346" cy="124.5" r="5.6"/>
<path class="st5" d="M204.8,181.2h-71.2c-2.7,0-5.2-1.8-5.8-4.5c-0.8-3.7,2-6.9,5.6-6.9h71.2c2.9,0,5.5,2.1,5.9,5
	C210.9,178.3,208.2,181.2,204.8,181.2z"/>
<path class="st5" d="M285.8,202.5H133.6c-2.7,0-5.2-1.8-5.8-4.5c-0.8-3.7,2-6.9,5.6-6.9h152.2c2.7,0,5.2,1.8,5.8,4.5
	C292.2,199.2,289.4,202.5,285.8,202.5z"/>
<path class="st3" d="M143.9,370.7h-43.3c-2.8,0-5-2.2-5-5v-13.1h53.3v13.1C148.9,368.4,146.6,370.7,143.9,370.7z"/>
<path class="st3" d="M399.8,370.7h-43.3c-2.8,0-5-2.2-5-5v-13.1h53.3v13.1C404.8,368.4,402.5,370.7,399.8,370.7z"/>
<path class="st2" d="M167.5,57.2h-3.3V54c0-2.8-2.2-5-5-5s-5,2.2-5,5v3.3H151c-2.8,0-5,2.2-5,5s2.2,5,5,5h3.3v3.3c0,2.8,2.2,5,5,5
	s5-2.2,5-5v-3.3h3.3c2.8,0,5-2.2,5-5S170.2,57.2,167.5,57.2z"/>
<path class="st3" d="M123.2,111.2c-3.7,0-7.5-1.4-10.3-4.3c-5.7-5.7-5.7-15,0-20.7c5.7-5.7,15-5.7,20.7,0c5.7,5.7,5.7,15,0,20.7
	C130.6,109.8,126.9,111.2,123.2,111.2L123.2,111.2z M123.2,92c-1.2,0-2.4,0.4-3.3,1.3c-1.8,1.8-1.8,4.7,0,6.5c1.8,1.8,4.7,1.8,6.5,0
	c1.8-1.8,1.8-4.7,0-6.5C125.5,92.4,124.3,92,123.2,92z"/>
<path class="st2" d="M441.2,293.8c-3.7,0-7.5-1.4-10.3-4.3c-5.7-5.7-5.7-15,0-20.7s15-5.7,20.7,0c5.7,5.7,5.7,15,0,20.7
	C448.7,292.4,444.9,293.8,441.2,293.8L441.2,293.8z M448,286L448,286L448,286z M441.2,274.6c-1.2,0-2.4,0.4-3.3,1.3
	c-1.8,1.8-1.8,4.7,0,6.5c1.8,1.8,4.7,1.8,6.5,0c1.8-1.8,1.8-4.7,0-6.5C443.6,275.1,442.4,274.6,441.2,274.6L441.2,274.6z"/>
<path class="st7" d="M211.5,453.8c-8.1,0-14.6-6.6-14.6-14.6s6.6-14.6,14.6-14.6s14.6,6.6,14.6,14.6S219.5,453.8,211.5,453.8z
	 M211.5,434.6c-2.5,0-4.6,2.1-4.6,4.6s2.1,4.6,4.6,4.6s4.6-2.1,4.6-4.6S214,434.6,211.5,434.6z"/>
<path class="st3" d="M342.1,453.2h-3.3V450c0-2.8-2.2-5-5-5s-5,2.2-5,5v3.3h-3.3c-2.8,0-5,2.2-5,5s2.2,5,5,5h3.3v3.3
	c0,2.8,2.2,5,5,5s5-2.2,5-5v-3.3h3.3c2.8,0,5-2.2,5-5S344.9,453.2,342.1,453.2z"/>
<g>
	<path class="st13" d="M425.7,347.5H410v-19.8c0-2.8-2.2-5-5-5c0,0,0,0,0,0s0,0,0,0H100.5V159.4c0-8.7,7.1-15.8,15.8-15.8h136.9
		c2.8,0,5-2.2,5-5s-2.2-5-5-5H116.3c-14.3,0-25.8,11.6-25.8,25.8v188.2H74.8c-9.6,0-17.5,7.8-17.5,17.5v11.5
		c0,14.8,12.1,26.9,26.9,26.9h332.1c14.8,0,26.9-12.1,26.9-26.9V365C443.2,355.4,435.3,347.5,425.7,347.5L425.7,347.5z M399.8,365.7
		h-43.3v-8.1h43.3L399.8,365.7z M400,332.7v14.8h-81.4c-3.7,0-7.1,2-8.8,5.3l-6.6,12.3h-106l-6.6-12.3c-1.7-3.3-5.1-5.3-8.8-5.3
		h-81.4v-14.8L400,332.7L400,332.7z M143.9,365.7h-43.3v-8.1h43.3L143.9,365.7z M433.2,376.5c0,9.3-7.6,16.9-16.9,16.9H84.2
		c-9.3,0-16.9-7.6-16.9-16.9V365c0-4.1,3.4-7.5,7.5-7.5h15.8v8.1c0,5.5,4.5,10,10,10h43.3c5.5,0,10-4.5,10-10v-8.1h27.9l6.6,12.3
		c1.7,3.3,5.1,5.3,8.8,5.3h106c3.7,0,7.1-2,8.8-5.3l6.6-12.3h27.8v8.1c0,5.5,4.5,10,10,10h43.3c5.5,0,10-4.5,10-10v-8.1h15.9
		c4.1,0,7.5,3.4,7.5,7.5L433.2,376.5L433.2,376.5z"/>
	<path class="st13" d="M278.1,161.3c-1.4,3.2-0.7,7,1.8,9.5s6.2,3.2,9.5,1.8l11.8-5.2c7.6,4.5,16.1,6.8,25,6.8
		c1.4,0,2.9-0.1,4.4-0.2c18.7-1.6,34.5-13.7,41.5-30.4h12.3c8.7,0,15.8,7.1,15.8,15.8v138.8c0,2.8,2.2,5,5,5s5-2.2,5-5V159.4
		c0-14.3-11.6-25.8-25.8-25.8h-9.3c0.4-1.9,0.6-3.8,0.7-5.8c0.9-14.3-4.3-28.3-14.4-38.3S337.1,74.1,322.9,75
		c-24.3,1.6-44.1,21-46.2,45.2c-0.9,10.4,1.4,20.5,6.6,29.3L278.1,161.3z M286.7,121c1.6-19.3,17.5-34.8,36.8-36.1
		c11.4-0.7,22.6,3.5,30.6,11.5c8.1,8.1,12.2,19.2,11.5,30.6c-1.2,19.4-16.7,35.2-36.1,36.8c-9.1,0.8-17.8-1.5-25.3-6.4
		c-0.8-0.6-1.8-0.8-2.8-0.8c-0.7,0-1.4,0.1-2,0.4l-10.7,4.7l4.7-10.7c0.7-1.6,0.5-3.4-0.4-4.8C288.1,138.8,285.9,130.1,286.7,121
		L286.7,121z"/>
	<path class="st13" d="M241.6,353.7h17.3c2.8,0,5-2.2,5-5s-2.2-5-5-5h-17.3c-2.8,0-5,2.2-5,5S238.8,353.7,241.6,353.7L241.6,353.7z"
		/>
</g>
<path class="st11" d="M269,267.6H142.9c-2.8,0-5-2.2-5-5s2.2-5,5-5H269c1.3,0,2.6-0.5,3.5-1.5l49.2-49.2c2.8-2.8,6.6-4.4,10.6-4.4
	h24.7c4,0,7.8,1.6,10.6,4.4l25.5,25.5c0.9,0.9,2.2,1.5,3.5,1.5h30.5c2.8,0,5,2.2,5,5s-2.2,5-5,5h-30.5c-4,0-7.8-1.6-10.6-4.4
	L360.6,214c-0.9-0.9-2.2-1.5-3.5-1.5h-24.7c-1.3,0-2.6,0.5-3.5,1.5l-49.2,49.2C276.8,266.1,273,267.6,269,267.6z"/>
<path class="st3" d="M142.9,307.8c-1.3,0-2.6-0.5-3.5-1.5c-2-2-2-5.1,0-7.1l62.2-62.2c2.8-2.8,6.6-4.4,10.6-4.4h50.9
	c1.3,0,2.6-0.5,3.5-1.5l13.3-13.3c2.8-2.8,6.6-4.4,10.6-4.4h38.2c1.3,0,2.6-0.5,3.5-1.5l15.7-15.7c2.8-2.8,6.6-4.4,10.6-4.4h67.2
	c1.3,0,2.6-0.5,3.5-1.5l29.6-29.6c2-2,5.1-2,7.1,0c2,2,2,5.1,0,7.1l-29.6,29.6c-2.8,2.8-6.6,4.4-10.6,4.4h-67.2
	c-1.3,0-2.6,0.5-3.5,1.5l-15.7,15.7c-2.8,2.8-6.6,4.4-10.6,4.4h-38.2c-1.3,0-2.6,0.5-3.5,1.5l-13.3,13.3c-2.8,2.8-6.6,4.4-10.6,4.4
	h-50.9c-1.3,0-2.6,0.5-3.5,1.5l-62.2,62.2C145.5,307.3,144.2,307.8,142.9,307.8L142.9,307.8z"/>
</svg>
